<svg xmlns="http://www.w3.org/2000/svg" width="41.597" height="36.397" viewBox="0 0 41.597 36.397">
  <g id="_イヤー_1-2" transform="translate(58.93 -108.561)">
    <path id="パス_31636" data-name="パス 31636" d="M37.474,23.492v2.794L16.295,34.93,4.468,26.013v-2.7C1.678,24.69,0,26.423,0,28.311,0,32.777,9.312,36.4,20.8,36.4s20.8-3.62,20.8-8.087c0-1.809-1.545-3.471-4.125-4.819ZM11.57,9.506l7.563,11.7.979-.378,18.5-7.14L29.764,0,2.987,10.482l.978,2.089,7.606-3.065Zm4.986,23.625L35.8,25.277V16.619L20.821,22.4l-2.448.946L10.824,11.671,6.137,13.56V25.277L8.949,27.4V21.126l3.529,2.421v6.512l4.078,3.074Zm-4.41-12.148L9.283,19.02V16.713l2.863,1.962v2.308Z" transform="translate(-58.93 108.56)" fill="#972223"/>
  </g>
</svg>
