<svg xmlns="http://www.w3.org/2000/svg" width="41.604" height="36.4" viewBox="0 0 41.604 36.4">
  <g id="_イヤー_1-2" transform="translate(59 -108.6)">
    <path id="パス_31636" d="M-21.5,132.1v2.8l-21.2,8.6-11.8-8.9v-2.7c-2.8,1.4-4.5,3.1-4.5,5,0,4.5,9.3,8.1,20.8,8.1s20.8-3.6,20.8-8.1c.1-1.8-1.5-3.5-4.1-4.8Zm-25.9-14,7.6,11.7,1-.4,18.5-7.1-8.8-13.7L-55.9,119l1,2.1,7.5-3Zm5,23.6,19.2-7.9v-8.7l-15,5.8-2.4.9-7.5-11.7-4.7,1.9v11.7l2.8,2.1v-6.3l3.5,2.4v6.5l4.1,3.3Zm-4.4-12.2-2.9-2v-2.3l2.9,2Z" fill="#424245"/>
  </g>
</svg>
