<svg xmlns="http://www.w3.org/2000/svg" width="127.968" height="50.16" viewBox="0 0 127.968 50.16">
  <g id="text" transform="translate(-734.776 -1001.84)">
    <path id="パス_17300" data-name="パス 17300" d="M-50.712-18.912a36.869,36.869,0,0,0,5.328,7.632H-59.832a26.971,26.971,0,0,0,5.088-7.752l-2.376-.7a20.368,20.368,0,0,1-7.1,8.952A16.739,16.739,0,0,1-62.328-9a20.453,20.453,0,0,0,2.184-1.944V-9.1h4.488c-.5,3.792-1.776,7.3-7.3,9.12a7.045,7.045,0,0,1,1.416,1.992c6.168-2.256,7.7-6.456,8.3-11.112h5.544c-.24,5.568-.552,7.824-1.1,8.4a1.287,1.287,0,0,1-1.032.336c-.552,0-1.92-.024-3.384-.168a5.119,5.119,0,0,1,.744,2.256,27.055,27.055,0,0,0,3.72,0A2.587,2.587,0,0,0-46.776.744c.816-.936,1.152-3.72,1.464-10.992.024-.216.024-.72.024-.936a21.921,21.921,0,0,0,2.016,1.968A12.275,12.275,0,0,1-41.4-11.208a26.574,26.574,0,0,1-7.152-8.568Zm35.04.84h-5.784V-20.16h-2.256v2.088h-5.472v1.68h13.512Zm-5.784,2.736a21.128,21.128,0,0,1,4.632,2.784l1.488-1.152a24.772,24.772,0,0,0-4.656-2.664Zm-4.008-.936A12.388,12.388,0,0,1-29.856-13.8a11.6,11.6,0,0,1,1.464,1.392A14.1,14.1,0,0,0-23.568-15.7Zm-4.872-3.072h-5.976v1.752h5.976Zm.672,3.168H-37.44V-14.4h7.776Zm-2.448,11.5v3.456h-2.616V-4.68Zm1.8-1.8H-36.5V1.584h1.776V.528h4.416Zm-6.144-1.488h6.168V-9.72h-6.168Zm0-3.216h6.168v-1.728h-6.168Zm12.432,3.432h2.976v1.128h-2.976Zm0-2.568h2.976v1.1h-2.976ZM-16.992-4.7a27.66,27.66,0,0,1-2.544,1.656,10.543,10.543,0,0,1-1.176-2.016h5.352v-1.56h-3.648V-7.752h2.592V-9.216h-2.592v-1.1h3.048v-1.512h-3.048v-1.656h-2.04v1.656h-2.976v-1.656h-1.992v1.656H-28.8v1.512h2.784v1.1h-2.256v1.464h2.256v1.128h-3.576v1.56h4.3a17.629,17.629,0,0,1-4.848,2.256,13.578,13.578,0,0,1,1.2,1.488,21.991,21.991,0,0,0,2.448-1.1V-.36c-.816.12-1.584.24-2.232.336l.552,1.728c2.088-.336,4.8-.84,7.392-1.32l-.144-1.632c-1.248.216-2.5.408-3.672.6v-2.9a12.49,12.49,0,0,0,1.8-1.512h.192A10.752,10.752,0,0,0-16.32,1.872a6.575,6.575,0,0,1,1.3-1.608,9.415,9.415,0,0,1-3.528-2.136,21.294,21.294,0,0,0,2.784-1.656Zm11.064-7.68h2.664V-14.5H-5.928v-5.328H-8.016V-14.5h-2.952v2.112h2.952V-5.16c-1.2.48-2.3.912-3.168,1.224L-10.32-1.7c2.136-.936,4.872-2.184,7.392-3.408l-.5-1.968c-.816.336-1.68.7-2.5,1.056ZM2.16-.6C.624-.6.36-.864.36-2.208V-10.08l2.688-1.152V-3.5H5.136V-12.12l2.784-1.2c0,3.672-.048,5.9-.144,6.36-.1.5-.312.6-.624.6-.24,0-.888,0-1.392-.024a6.892,6.892,0,0,1,.5,1.9,7.4,7.4,0,0,0,2.3-.264c.744-.192,1.152-.72,1.272-1.728.144-.936.192-4.2.192-8.688l.1-.384-1.56-.6-.384.312-.432.336L5.136-14.4v-5.712H3.048v6.6L.36-12.384v-5.472H-1.752v6.36l-2.5,1.056.84,1.992,1.656-.72v6.936c0,2.88.84,3.624,3.792,3.624h5.5c2.616,0,3.288-1.08,3.6-4.392a5.954,5.954,0,0,1-1.968-.84C8.976-1.224,8.736-.6,7.416-.6Zm13.368-9.984v2.448h21.84v-2.448Zm48.048-5.448v-1.752H56.784a18.19,18.19,0,0,0,.672-1.92l-1.992-.456a14.55,14.55,0,0,1-2.976,5.64,13,13,0,0,1,1.752,1.152,13.482,13.482,0,0,0,1.752-2.664Zm-.648,4.344V-13.44H55.056v1.752Zm-17.88-1.7h2.136v1.1H45.048ZM47.184-18v.984H45.048V-18Zm3.168,3.336h-5.3v-1.08h5.3Zm2.736,2.376h-4.1v-1.1H52.3v-3.624H48.984V-18h3.768v-1.32H43.008v8.376h10.08ZM47.52-4.536H58.008V-3.5H47.52Zm0-2.208H58.008v1.008H47.52Zm0-2.208H58.008v1.008H47.52ZM57.456-.12c-1.032,0-1.2-.072-1.2-.648V-2.232h3.936v-7.944H45.408v7.944h3.264C48-.768,46.392-.12,41.856.216a5.26,5.26,0,0,1,.96,1.7c5.4-.552,7.344-1.728,8.112-4.152h3.144V-.744c0,1.872.624,2.376,3.144,2.376h3.768c1.92,0,2.544-.6,2.76-3.144a7.385,7.385,0,0,1-1.9-.7c-.1,1.824-.24,2.088-1.08,2.088Z" transform="translate(799 1022)" fill="#0f0f0f"/>
    <line id="線_7665" data-name="線 7665" x2="60" transform="translate(770 1051.5)" fill="none" stroke="#000" stroke-width="1"/>
  </g>
</svg>
