<svg xmlns="http://www.w3.org/2000/svg" width="117.304" height="48.48" viewBox="0 0 117.304 48.48">
  <g id="text" transform="translate(-740.128 -1003.52)">
    <path id="パス_17300" data-name="パス 17300" d="M-46.486-17.336a33.8,33.8,0,0,0,4.884,7H-54.846a24.723,24.723,0,0,0,4.664-7.106l-2.178-.638a18.671,18.671,0,0,1-6.512,8.206A15.344,15.344,0,0,1-57.134-8.25a18.748,18.748,0,0,0,2-1.782v1.694h4.114c-.462,3.476-1.628,6.688-6.688,8.36a6.458,6.458,0,0,1,1.3,1.826C-50.754-.22-49.346-4.07-48.8-8.338h5.082c-.22,5.1-.506,7.172-1.012,7.7a1.179,1.179,0,0,1-.946.308c-.506,0-1.76-.022-3.1-.154a4.692,4.692,0,0,1,.682,2.068,24.8,24.8,0,0,0,3.41,0,2.372,2.372,0,0,0,1.8-.9c.748-.858,1.056-3.41,1.342-10.076.022-.2.022-.66.022-.858a20.094,20.094,0,0,0,1.848,1.8,11.252,11.252,0,0,1,1.716-1.826,24.359,24.359,0,0,1-6.556-7.854Zm32.12.77h-5.3V-18.48h-2.068v1.914h-5.016v1.54h12.386Zm-5.3,2.508a19.368,19.368,0,0,1,4.246,2.552l1.364-1.056A22.708,22.708,0,0,0-18.326-15Zm-3.674-.858a11.355,11.355,0,0,1-4.026,2.266,10.631,10.631,0,0,1,1.342,1.276A12.929,12.929,0,0,0-21.6-14.388Zm-4.466-2.816h-5.478v1.606h5.478Zm.616,2.9H-34.32V-13.2h7.128ZM-29.436-4.29v3.168h-2.4V-4.29Zm1.65-1.65h-5.676V1.452h1.628V.484h4.048ZM-33.418-7.3h5.654V-8.91h-5.654Zm0-2.948h5.654v-1.584h-5.654Zm11.4,3.146h2.728v1.034h-2.728Zm0-2.354h2.728v1.012h-2.728Zm6.446,5.148a25.354,25.354,0,0,1-2.332,1.518,9.664,9.664,0,0,1-1.078-1.848h4.906v-1.43h-3.344V-7.106h2.376V-8.448h-2.376V-9.46h2.794v-1.386h-2.794v-1.518h-1.87v1.518h-2.728v-1.518h-1.826v1.518H-26.4V-9.46h2.552v1.012h-2.068v1.342h2.068v1.034h-3.278v1.43h3.938a16.16,16.16,0,0,1-4.444,2.068,12.447,12.447,0,0,1,1.1,1.364,20.158,20.158,0,0,0,2.244-1.012V-.33c-.748.11-1.452.22-2.046.308l.506,1.584c1.914-.308,4.4-.77,6.776-1.21l-.132-1.5c-1.144.2-2.288.374-3.366.55V-3.256A11.449,11.449,0,0,0-20.9-4.642h.176A9.856,9.856,0,0,0-14.96,1.716,6.027,6.027,0,0,1-13.772.242a8.63,8.63,0,0,1-3.234-1.958,19.519,19.519,0,0,0,2.552-1.518Zm10.142-7.04h2.442v-1.936H-5.434v-4.884H-7.348v4.884h-2.706v1.936h2.706V-4.73c-1.1.44-2.112.836-2.9,1.122l.792,2.046c1.958-.858,4.466-2,6.776-3.124l-.462-1.8c-.748.308-1.54.638-2.288.968ZM1.98-.55C.572-.55.33-.792.33-2.024V-9.24L2.794-10.3v7.084H4.708v-7.9l2.552-1.1c0,3.366-.044,5.412-.132,5.83-.088.462-.286.55-.572.55-.22,0-.814,0-1.276-.022a6.318,6.318,0,0,1,.462,1.738,6.779,6.779,0,0,0,2.112-.242c.682-.176,1.056-.66,1.166-1.584C9.152-6.8,9.2-9.79,9.2-13.9l.088-.352-1.43-.55L7.5-14.52l-.4.308L4.708-13.2v-5.236H2.794v6.05L.33-11.352v-5.016H-1.606v5.83l-2.288.968.77,1.826,1.518-.66v6.358c0,2.64.77,3.322,3.476,3.322H6.908c2.4,0,3.014-.99,3.3-4.026a5.458,5.458,0,0,1-1.8-.77c-.176,2.4-.4,2.97-1.606,2.97ZM14.234-9.7v2.244h20.02V-9.7ZM58.278-14.7V-16.3H52.052a16.674,16.674,0,0,0,.616-1.76l-1.826-.418a13.338,13.338,0,0,1-2.728,5.17,11.916,11.916,0,0,1,1.606,1.056A12.358,12.358,0,0,0,51.326-14.7Zm-.594,3.982V-12.32H50.468v1.606Zm-16.39-1.562h1.958v1.012H41.294ZM43.252-16.5v.9H41.294v-.9Zm2.9,3.058H41.294v-.99h4.862Zm2.508,2.178H44.9v-1.012h3.036V-15.6H44.9v-.9h3.454v-1.21H39.424v7.678h9.24Zm-5.1,7.106h9.614v.946H43.56Zm0-2.024h9.614v.924H43.56Zm0-2.024h9.614v.924H43.56Zm9.108,8.1c-.946,0-1.1-.066-1.1-.594V-2.046h3.608V-9.328H41.624v7.282h2.992C44-.7,42.526-.11,38.368.2a4.822,4.822,0,0,1,.88,1.562C44.2,1.254,45.98.176,46.684-2.046h2.882V-.682c0,1.716.572,2.178,2.882,2.178H55.9c1.76,0,2.332-.55,2.53-2.882a6.77,6.77,0,0,1-1.738-.638C56.606-.352,56.474-.11,55.7-.11Z" transform="translate(799 1022)" fill="#0f0f0f"/>
    <line id="線_7665" data-name="線 7665" x2="60" transform="translate(770 1051.5)" fill="none" stroke="#000" stroke-width="1"/>
  </g>
</svg>
